<svg xmlns="http://www.w3.org/2000/svg" viewBox="0 0 32 32">
  <defs><linearGradient id="ff-accent" x1="4" y1="0" x2="28" y2="0" gradientUnits="userSpaceOnUse"><stop stop-color="#7c5cff"/><stop offset="1" stop-color="#ff4fa3"/></linearGradient></defs>
  <rect width="32" height="32" rx="7" fill="#0b0b10"/>
  <g transform="translate(-0.2 -2.6)">
    <mask id="ff-eye" maskUnits="userSpaceOnUse" x="0" y="0" width="32" height="32"><rect width="32" height="32" fill="#fff"/><circle cx="26.2" cy="12.4" r="1.25" fill="#000"/></mask><g mask="url(#ff-eye)" fill="#fafafa"><path d="M10 24V19A6.5 6.5 0 0 1 23 19V24" fill="none" stroke="#fafafa" stroke-width="4.8" stroke-linecap="round"/><path d="M21.2 11.6A4 4 0 0 1 28.4 11.2L30.6 14.4C29.2 16 26.4 16.4 24.2 15.6C21.8 14.8 20.6 13.4 21.2 11.6Z" stroke="#fafafa" stroke-width="1.0" stroke-linejoin="round"/><circle cx="23" cy="9.6" r="1.8"/><path d="M8.4 16.6A8.6 8.6 0 0 1 1.8 24.9A6.6 6.6 0 0 0 8.4 22.6Z"/></g>
    <rect x="4.4" y="27.2" width="23.6" height="2" rx="1" fill="url(#ff-accent)"/>
  </g>
</svg>
